<svg xmlns="http://www.w3.org/2000/svg" viewBox="0 0 872.92 120.73"><defs><style>.cls-1,.cls-2,.cls-3,.cls-4{fill:none;stroke:#fad71d;stroke-miterlimit:10;}.cls-1{stroke-width:4px;}.cls-2{stroke-width:3px;}.cls-3{stroke-width:2px;}.cls-4{stroke-width:1.5px;}.cls-5{fill:#fad71d;}</style></defs><g id="Warstwa_2" data-name="Warstwa 2"><g id="Warstwa_1-2" data-name="Warstwa 1"><circle class="cls-1" cx="60.37" cy="60.37" r="58.37"/><rect class="cls-2" x="26.15" y="20.46" width="68.62" height="13.15" rx="1.5"/><path class="cls-3" d="M31.67,33.62v8.32a1.5,1.5,0,0,0,1.5,1.5H87.4a1.5,1.5,0,0,0,1.5-1.5V33.62"/><line class="cls-3" x1="84.74" y1="105.38" x2="84.74" y2="43.44"/><line class="cls-3" x1="35.72" y1="105.38" x2="35.72" y2="43.44"/><path class="cls-4" d="M81.31,105.38V49.55a1.51,1.51,0,0,0-1.51-1.5h-5a1.5,1.5,0,0,0-1.5,1.5v55.83"/><path class="cls-4" d="M69.79,105.38V49.55a1.5,1.5,0,0,0-1.5-1.5h-5a1.51,1.51,0,0,0-1.51,1.5v55.83"/><path class="cls-4" d="M58.28,105.56V49.72a1.5,1.5,0,0,0-1.49-1.5h-5a1.5,1.5,0,0,0-1.5,1.5v55.84"/><path class="cls-4" d="M47.28,105.56V49.72a1.5,1.5,0,0,0-1.49-1.5h-5a1.5,1.5,0,0,0-1.5,1.5v55.84"/><path class="cls-5" d="M182.72,101.12v2.31H138.51v-2.31h2.81a11.7,11.7,0,0,0,5.92-1.31,5.72,5.72,0,0,0,2.5-3q.67-1.5.68-7.86V33.34q0-6.48-.68-8.1A6.28,6.28,0,0,0,147,22.4a11.19,11.19,0,0,0-5.64-1.22h-2.81v-2.3h44.21v2.3h-2.8A11.74,11.74,0,0,0,174,22.49a6,6,0,0,0-2.55,3q-.69,1.49-.69,7.85V89q0,6.5.72,8.11a6.33,6.33,0,0,0,2.8,2.83,11.15,11.15,0,0,0,5.65,1.22Z"/><path class="cls-5" d="M188.65,18.88h43.64v2.3h-2.18c-3.28,0-5.54.35-6.76,1a5.85,5.85,0,0,0-2.62,2.84c-.52,1.2-.78,4.22-.78,9v41.4q0,11.36,1.71,15a14.34,14.34,0,0,0,5.65,6.11,18.52,18.52,0,0,0,9.91,2.43A21.33,21.33,0,0,0,248.91,96a19.07,19.07,0,0,0,7.24-8.51q2.39-5.43,2.4-18.9V34.09q0-5.67-1.19-8.11a7.09,7.09,0,0,0-3-3.36,17.66,17.66,0,0,0-7.92-1.44v-2.3h29.24v2.3H274A11.25,11.25,0,0,0,268,22.62a8.16,8.16,0,0,0-3.43,4.3q-.81,2-.81,7.17V66.2q0,14.91-2,21.52t-9.57,12.15q-7.6,5.55-20.77,5.55-11,0-17-2.93-8.16-4-11.53-10.22t-3.37-16.78V34.09c0-4.86-.27-7.89-.81-9.07A6.08,6.08,0,0,0,196,22.18q-2-1.07-7.35-1Z"/><path class="cls-5" d="M337.86,16.94l.69,28.19H336q-1.82-10.6-8.89-17.06t-15.3-6.45q-6.36,0-10.07,3.4A10.31,10.31,0,0,0,298,32.84a9.52,9.52,0,0,0,1.3,5,21.17,21.17,0,0,0,5.8,5.8,133.75,133.75,0,0,0,13.53,7.3q14.85,7.29,20,13.78a23.29,23.29,0,0,1,5.11,14.84q0,10.59-8.26,18.23t-21,7.64a33.93,33.93,0,0,1-7.55-.81,57.28,57.28,0,0,1-8.91-3,13.57,13.57,0,0,0-4.93-1.25,6.14,6.14,0,0,0-3.43,1.25,8.78,8.78,0,0,0-2.93,3.8h-2.31V73.43h2.31Q289.53,86.9,297.36,94t16.87,7.08q7,0,11.13-3.8a11.51,11.51,0,0,0,2.56-14.66,18.59,18.59,0,0,0-4.84-5.33,72.83,72.83,0,0,0-11.47-6.58Q300.08,65,295,61a29.82,29.82,0,0,1-7.76-8.92,22.09,22.09,0,0,1-2.71-10.85A23,23,0,0,1,292,24.05q7.41-7.11,18.7-7.11a32,32,0,0,1,8,1,39.65,39.65,0,0,1,7.14,2.77c2.81,1.36,4.77,2,5.9,2a3.3,3.3,0,0,0,2.55-1q.94-1,1.75-4.8Z"/><path class="cls-5" d="M466.06,16.94V46.25h-2.43q-2.75-11.47-10.23-17.58a26.07,26.07,0,0,0-17-6.12,25,25,0,0,0-14.53,4.56A26.55,26.55,0,0,0,412.25,39,53.86,53.86,0,0,0,408.32,60a70.21,70.21,0,0,0,2.87,20.67q2.87,9.31,9,14.09T436,99.5A30.91,30.91,0,0,0,450.63,96q6.64-3.49,14-12v7.3A46.11,46.11,0,0,1,449.82,102a44.87,44.87,0,0,1-18,3.34,51.72,51.72,0,0,1-24-5.42,38.35,38.35,0,0,1-16.21-15.59,43.48,43.48,0,0,1-5.71-21.64,44.88,44.88,0,0,1,6.33-23,44.62,44.62,0,0,1,17.09-16.83,46.27,46.27,0,0,1,22.85-6A51.83,51.83,0,0,1,451,20.81c3.82,1.49,6.26,2.24,7.3,2.24a4.72,4.72,0,0,0,3.46-1.46,8,8,0,0,0,1.9-4.65Z"/><path class="cls-5" d="M507,64.89v23.7q0,6.85.84,8.63a6.07,6.07,0,0,0,3,2.84q2.12,1.06,7.92,1.06v2.31H475.41v-2.31q5.86,0,7.95-1.09a6.39,6.39,0,0,0,2.94-2.84q.84-1.74.84-8.6V33.72c0-4.58-.28-7.45-.84-8.64a6.23,6.23,0,0,0-3-2.84c-1.41-.7-4.05-1.06-7.92-1.06v-2.3H514.7q15.33,0,22.44,2.12a22.59,22.59,0,0,1,11.6,7.82,21,21,0,0,1,4.49,13.38,20,20,0,0,1-6.73,15.46q-4.31,3.87-12,5.8l20.33,28.62q4,5.55,5.68,6.92a10.48,10.48,0,0,0,5.92,2.12v2.31H539.76L512.51,64.89Zm0-41.46v37h3.55q8.67,0,13-1.58a12.92,12.92,0,0,0,6.76-5.74q2.47-4.14,2.47-10.82,0-9.66-4.52-14.28t-14.56-4.61Z"/><path class="cls-5" d="M600.06,23.74V58.16h1.68q8.06,0,11.66-5T618,38.21h2.37V82.48H618a33.23,33.23,0,0,0-3.15-11.85c-1.6-3.08-3.46-5.14-5.58-6.2s-5.2-1.59-9.23-1.59V86.65q0,7,.59,8.55a5.15,5.15,0,0,0,2.22,2.56,10.43,10.43,0,0,0,5.23,1h5q11.85,0,19-5.48T642.4,76.56h2.31l-3.81,26.87H567.82v-2.31h2.81a11.7,11.7,0,0,0,5.92-1.31,5.72,5.72,0,0,0,2.5-3q.68-1.5.68-7.86V33.34a44.31,44.31,0,0,0-.31-7.05,6,6,0,0,0-2.31-3.36,10.74,10.74,0,0,0-6.48-1.75h-2.81v-2.3H638.6v25h-2.37q-1.82-9.16-5.09-13.16a18.89,18.89,0,0,0-9.26-5.86q-3.48-1.12-13.09-1.12Z"/><path class="cls-5" d="M652.13,103.43v-2.31h2.8a11.3,11.3,0,0,0,5.65-1.15,7.09,7.09,0,0,0,2.89-3.15q.57-1.3.57-7.86V33.34q0-6.48-.69-8.1a6.26,6.26,0,0,0-2.77-2.84,11.25,11.25,0,0,0-5.65-1.22h-2.8v-2.3H690q15.15,0,24.38,4.11a36.07,36.07,0,0,1,17.11,15.28A45.84,45.84,0,0,1,737.3,61.4a45.52,45.52,0,0,1-2.87,16.43A37.57,37.57,0,0,1,727,90.24a36.41,36.41,0,0,1-10.5,7.86A56.38,56.38,0,0,1,702,102.68a68.35,68.35,0,0,1-12,.75Zm32.23-79.75v66q0,5.23.5,6.42a3.58,3.58,0,0,0,1.69,1.81,10.22,10.22,0,0,0,4.86.93q10.41,0,15.9-7.1,7.49-9.6,7.48-29.81,0-16.27-5.11-26-4-7.6-10.41-10.35Q694.77,23.62,684.36,23.68Z"/><path class="cls-5" d="M789.43,101.12v2.31H745.22v-2.31H748A11.7,11.7,0,0,0,754,99.81a5.72,5.72,0,0,0,2.5-3q.67-1.5.68-7.86V33.34q0-6.48-.68-8.1a6.28,6.28,0,0,0-2.78-2.84A11.19,11.19,0,0,0,748,21.18h-2.81v-2.3h44.21v2.3h-2.8a11.74,11.74,0,0,0-5.93,1.31,6,6,0,0,0-2.55,3q-.69,1.49-.69,7.85V89q0,6.5.71,8.11A6.41,6.41,0,0,0,781,99.9a11.1,11.1,0,0,0,5.65,1.22Z"/><path class="cls-5" d="M872.92,18.88V41.76h-2.24q-2-7.92-4.43-11.38a17,17,0,0,0-6.67-5.52q-2.37-1.12-8.29-1.12H845V89q0,6.5.71,8.11a6.41,6.41,0,0,0,2.81,2.83,11.24,11.24,0,0,0,5.71,1.22H857v2.31H812.75v-2.31h2.81a11.72,11.72,0,0,0,5.92-1.31,6,6,0,0,0,2.56-3q.68-1.5.68-7.86V23.74h-6.11q-8.54,0-12.41,3.62-5.41,5-6.86,14.4H797V18.88Z"/></g></g></svg>